HIERARCHY
ROOT Hips
{
 OFFSET 0.000000 0.000000 0.000000
 CHANNELS 6 Xposition Yposition Zposition Yrotation Xrotation Zrotation
 JOINT Chest
 {
  OFFSET 0.000000 9.712594 -1.079177
  CHANNELS 3 Yrotation Xrotation Zrotation
  JOINT Chest2
  {
   OFFSET 0.000000 10.759251 0.000000
   CHANNELS 3 Yrotation Xrotation Zrotation
   JOINT Chest3
   {
    OFFSET 0.000000 9.823226 -0.001999
    CHANNELS 3 Yrotation Xrotation Zrotation
    JOINT Chest4
    {
     OFFSET 0.000000 9.812256 -0.002001
     CHANNELS 3 Yrotation Xrotation Zrotation
     JOINT Neck
     {
      OFFSET 0.000000 13.748480 0.000000
      CHANNELS 3 Yrotation Xrotation Zrotation
      JOINT Head
      {
       OFFSET 0.000000 9.135699 0.004298
       CHANNELS 3 Yrotation Xrotation Zrotation
       End Site
       {
        OFFSET 0.000000 16.972127 0.000578
       }
      }
     }
     JOINT RightCollar
     {
      OFFSET -2.995251 7.707918 0.000000
      CHANNELS 3 Yrotation Xrotation Zrotation
      JOINT RightShoulder
      {
       OFFSET -14.015160 0.000000 0.000000
       CHANNELS 3 Yrotation Xrotation Zrotation
       JOINT RightElbow
       {
        OFFSET -30.031081 0.000000 0.000000
        CHANNELS 3 Yrotation Xrotation Zrotation
        JOINT RightWrist
        {
         OFFSET -24.546019 0.000000 0.000000
         CHANNELS 3 Yrotation Xrotation Zrotation
         End Site
         {
          OFFSET -18.319691 0.000000 0.000000
         }
        }
       }
      }
     }
     JOINT LeftCollar
     {
      OFFSET 2.995251 7.707918 0.000000
      CHANNELS 3 Yrotation Xrotation Zrotation
      JOINT LeftShoulder
      {
       OFFSET 14.015160 0.000000 0.000000
       CHANNELS 3 Yrotation Xrotation Zrotation
       JOINT LeftElbow
       {
        OFFSET 30.031081 0.000000 0.000000
        CHANNELS 3 Yrotation Xrotation Zrotation
        JOINT LeftWrist
        {
         OFFSET 24.546019 0.000000 0.000000
         CHANNELS 3 Yrotation Xrotation Zrotation
         End Site
         {
          OFFSET 18.319691 0.000000 0.000000
         }
        }
       }
      }
     }
    }
   }
  }
 }
 JOINT RightHip
 {
  OFFSET -7.993633 0.005986 -0.000665
  CHANNELS 3 Yrotation Xrotation Zrotation
  JOINT RightKnee
  {
   OFFSET 0.000000 -41.535395 -0.000472
   CHANNELS 3 Yrotation Xrotation Zrotation
   JOINT RightAnkle
   {
    OFFSET 0.000000 -40.519621 -0.000796
    CHANNELS 3 Yrotation Xrotation Zrotation
    JOINT RightToe
    {
     OFFSET 0.000000 -6.852876 15.544628
     CHANNELS 3 Yrotation Xrotation Zrotation
     End Site
     {
      OFFSET 0.000000 -1.535338 6.621682
     }
    }
   }
  }
 }
 JOINT LeftHip
 {
  OFFSET 7.993633 0.003797 -0.000422
  CHANNELS 3 Yrotation Xrotation Zrotation
  JOINT LeftKnee
  {
   OFFSET 0.000000 -41.535395 -0.000472
   CHANNELS 3 Yrotation Xrotation Zrotation
   JOINT LeftAnkle
   {
    OFFSET 0.000000 -40.519621 -0.000796
    CHANNELS 3 Yrotation Xrotation Zrotation
    JOINT LeftToe
    {
     OFFSET 0.000000 -6.852876 15.544628
     CHANNELS 3 Yrotation Xrotation Zrotation
     End Site
     {
      OFFSET 0.000000 -1.535338 6.621682
     }
    }
   }
  }
 }
}
MOTION
Frames: 17
Frame Time: 0.016667
0.000000 90.304791 0.000000 0.000000 6.340192 0.000000 0.000000 -6.340192 0.000000 0.000000 -5.826342 0.000000 0.000000 -0.005910 0.000000 0.000000 5.832252 0.000000 0.000000 12.610213 0.000000 0.000000 -9.243752 0.000000 0.000000 0.000000 0.000000 0.000000 0.000000 0.000000 2.309063 0.000000 0.000000 -2.309063 0.000000 0.000000 0.000000 0.000000 0.000000 0.000000 0.000000 0.000000 -2.309063 0.000000 0.000000 2.309063 0.000000 0.000000 0.000000 -3.591006 0.000000 0.000000 1.872585 0.000000 0.000000 -4.621771 0.000000 0.000000 0.000000 0.000000 0.000000 -3.587706 0.000000 0.000000 1.905768 0.000000 0.000000 -4.658254 0.000000 0.000000 0.000000 0.000000
14.065776 90.255183 9.322426 11.339514 4.613687 -0.257342 -1.300343 -3.971130 -1.793634 -0.510202 -7.585671 -0.814558 -0.505886 -1.765467 -0.866377 -0.448260 4.512920 -0.653080 0.118951 16.650787 1.702806 -0.378050 -5.091599 3.115348 4.165788 -21.215717 -14.839758 -19.798005 -68.543673 33.986218 54.402086 -17.145666 29.296625 17.302886 27.782637 -29.303794 -0.297685 1.583298 -11.187565 -1.618296 -6.245570 -72.685823 -4.102190 16.470467 -10.147866 6.570927 28.105840 4.294787 0.466014 -2.831042 -1.474751 0.691897 3.216226 0.331244 -7.706666 -4.555764 1.337801 -0.001396 -0.240826 0.664084 2.734472 -1.169003 2.540483 -1.583177 -0.264954 -0.310195 5.685197 -2.517004 -1.997225 0.001841 -0.516361 -0.408559
14.062936 90.254796 9.316354 11.342093 4.624818 -0.255286 -1.287104 -3.970156 -1.809516 -0.503744 -7.585235 -0.821553 -0.499481 -1.765025 -0.872717 -0.443957 4.513242 -0.657829 0.130745 16.640452 1.701964 -0.356137 -5.111103 3.109806 4.170859 -21.247549 -14.847373 -19.827043 -68.543690 34.016290 54.435439 -17.175643 29.244282 17.299534 27.771060 -29.311177 -0.294455 1.593400 -11.204547 -1.606821 -6.232881 -72.699061 -4.130273 16.479579 -10.188355 6.566405 28.129928 4.265389 0.452662 -2.836013 -1.474867 0.690898 3.194729 0.328970 -7.694791 -4.542892 1.341349 -0.001372 -0.238640 0.658732 2.714996 -1.177855 2.540391 -1.571315 -0.277374 -0.312127 5.688268 -2.505118 -1.998497 0.001834 -0.517468 -0.406037
14.059871 90.254391 9.310982 11.340228 4.633174 -0.254497 -1.273535 -3.968073 -1.824256 -0.497177 -7.584312 -0.828032 -0.492969 -1.764097 -0.878528 -0.439531 4.513928 -0.662181 0.146120 16.633097 1.701443 -0.327624 -5.125154 3.103547 4.174499 -21.274222 -14.849032 -19.855823 -68.539548 34.048055 54.480073 -17.200410 29.196094 17.296451 27.766959 -29.320086 -0.291853 1.601194 -11.220134 -1.601097 -6.218767 -72.709844 -4.146529 16.485490 -10.213470 6.563277 28.148747 4.241784 0.445532 -2.840004 -1.474022 0.688940 3.176884 0.327116 -7.683758 -4.531585 1.344424 -0.001351 -0.236774 0.653644 2.703297 -1.183768 2.541303 -1.563351 -0.288890 -0.313681 5.692094 -2.494086 -1.999405 0.001831 -0.518952 -0.404408
14.056102 90.254034 9.306468 11.331861 4.637315 -0.255913 -1.259382 -3.963690 -1.837474 -0.490400 -7.582375 -0.833816 -0.486250 -1.762154 -0.883624 -0.434891 4.515375 -0.665994 0.166188 16.628384 1.702072 -0.290751 -5.134389 3.097727 4.175424 -21.294426 -14.842699 -19.881082 -68.526046 34.078938 54.542655 -17.215528 29.152063 17.292030 27.778781 -29.332144 -0.290106 1.604091 -11.234946 -1.608099 -6.200589 -72.719099 -4.145564 16.488957 -10.214192 6.562426 28.161061 4.222436 0.450221 -2.842837 -1.471077 0.683748 3.165089 0.325449 -7.674899 -4.522901 1.346795 -0.001332 -0.235250 0.648982 2.704581 -1.185332 2.544252 -1.563198 -0.299449 -0.314699 5.697594 -2.483741 -1.999989 0.001838 -0.521160 -0.404074
14.052107 90.253660 9.302653 11.319049 4.638682 -0.258596 -1.244897 -3.958203 -1.849549 -0.483514 -7.579954 -0.839082 -0.479422 -1.759727 -0.888191 -0.430127 4.517186 -0.669408 0.189844 16.626646 1.703025 -0.247269 -5.138181 3.091196 4.174918 -21.309482 -14.830389 -19.906057 -68.508385 34.111495 54.616467 -17.225416 29.112226 17.287895 27.798083 -29.345686 -0.288988 1.604676 -11.248370 -1.620845 -6.180979 -72.725903 -4.132807 16.489181 -10.199524 6.562937 28.168129 4.208894 0.461132 -2.844689 -1.467175 0.677596 3.156945 0.324198 -7.666882 -4.515783 1.348690 -0.001317 -0.234046 0.644584 2.713642 -1.183957 2.548198 -1.566943 -0.309104 -0.315339 5.703849 -2.474248 -2.000209 0.001849 -0.523746 -0.404635
14.048438 90.253383 9.299669 11.307961 4.636671 -0.262524 -1.232158 -3.951782 -1.860564 -0.477437 -7.577115 -0.843886 -0.473397 -1.756882 -0.892377 -0.425935 4.519310 -0.672540 0.215315 16.626434 1.703516 -0.200221 -5.139184 3.083147 4.170190 -21.316382 -14.812556 -19.925846 -68.491277 34.139480 54.673654 -17.233431 29.089805 17.286160 27.806445 -29.359191 -0.288828 1.606244 -11.257192 -1.629322 -6.167017 -72.727899 -4.120051 16.485947 -10.184710 6.562740 28.171434 4.199479 0.470473 -2.843598 -1.462269 0.673795 3.151204 0.323791 -7.660968 -4.510420 1.350362 -0.001303 -0.233108 0.640347 2.722310 -1.179966 2.553275 -1.569934 -0.316500 -0.315558 5.708058 -2.466591 -2.000108 0.001863 -0.526078 -0.405741
14.045335 90.253204 9.297846 11.301183 4.630033 -0.268096 -1.221988 -3.943982 -1.870383 -0.472538 -7.573657 -0.848172 -0.468541 -1.753420 -0.896166 -0.422587 4.521899 -0.675376 0.242339 16.627254 1.703507 -0.150096 -5.138308 3.073607 4.157686 -21.311550 -14.786993 -19.938440 -68.476782 34.160654 54.704211 -17.243797 29.094524 17.288804 27.791161 -29.372004 -0.291263 1.610141 -11.260037 -1.628572 -6.161642 -72.724063 -4.110482 16.477118 -10.174402 6.560248 28.168466 4.194925 0.474712 -2.837850 -1.455877 0.674251 3.147897 0.324440 -7.657931 -4.507231 1.351826 -0.001291 -0.232541 0.636324 2.727816 -1.172633 2.560037 -1.570178 -0.320528 -0.315420 5.708339 -2.461575 -1.999617 0.001877 -0.527947 -0.407366
14.042557 90.253121 9.296854 11.296129 4.620019 -0.274913 -1.213562 -3.935249 -1.879140 -0.468448 -7.569781 -0.851995 -0.464488 -1.749541 -0.899574 -0.419811 4.524802 -0.677927 0.271182 16.629600 1.703040 -0.096404 -5.134641 3.062557 4.140981 -21.298554 -14.755903 -19.945852 -68.462841 34.177262 54.718121 -17.252350 29.116648 17.293882 27.764932 -29.384789 -0.294652 1.615019 -11.258279 -1.623561 -6.161930 -72.715426 -4.100922 16.464843 -10.163955 6.557039 28.161735 4.194490 0.477380 -2.829159 -1.448482 0.677059 3.146992 0.325932 -7.656998 -4.505797 1.353066 -0.001282 -0.232240 0.632463 2.732931 -1.162686 2.567931 -1.569668 -0.322296 -0.314862 5.706575 -2.458395 -1.998806 0.001893 -0.529564 -0.409536
14.039934 90.253245 9.295834 11.291215 4.609776 -0.281757 -1.206489 -3.927089 -1.887323 -0.464981 -7.566156 -0.855575 -0.461052 -1.745913 -0.902801 -0.417484 4.527517 -0.680345 0.300864 16.633507 1.701456 -0.040730 -5.128101 3.049122 4.127966 -21.285110 -14.726356 -19.949240 -68.447983 34.189819 54.717516 -17.249912 29.140185 17.297587 27.747438 -29.398026 -0.294407 1.620131 -11.252823 -1.619160 -6.166177 -72.702707 -4.093607 16.455363 -10.154665 6.555803 28.160247 4.194289 0.481280 -2.820706 -1.441485 0.679807 3.147143 0.328049 -7.657109 -4.505054 1.354286 -0.001272 -0.231841 0.628505 2.737802 -1.152632 2.575433 -1.569725 -0.323770 -0.313662 5.705610 -2.455604 -1.997929 0.001909 -0.530927 -0.411990
14.037466 90.253698 9.295064 11.285152 4.598823 -0.288546 -1.201082 -3.920186 -1.894814 -0.462282 -7.563085 -0.858863 -0.458377 -1.742841 -0.905815 -0.415712 4.529817 -0.682605 0.331114 16.641031 1.698317 0.016616 -5.114869 3.032562 4.122782 -21.272603 -14.700197 -19.945786 -68.429811 34.196284 54.700187 -17.225959 29.160016 17.297706 27.752552 -29.413295 -0.286518 1.626268 -11.242674 -1.618761 -6.174134 -72.685374 -4.090806 16.452641 -10.148792 6.558214 28.170347 4.192916 0.489090 -2.811908 -1.435252 0.681489 3.148318 0.331099 -7.658568 -4.505104 1.355489 -0.001260 -0.231310 0.624279 2.743060 -1.141512 2.582296 -1.570878 -0.325237 -0.311503 5.706828 -2.453342 -1.997057 0.001926 -0.532033 -0.414883
14.035152 90.254358 9.294266 11.279230 4.587643 -0.295363 -1.197028 -3.913857 -1.901733 -0.460205 -7.560266 -0.861908 -0.456320 -1.740020 -0.908649 -0.414389 4.531929 -0.684731 0.362206 16.650119 1.694068 0.075945 -5.098755 3.013633 4.121283 -21.259654 -14.675582 -19.938334 -68.410723 34.198724 54.668339 -17.191031 29.181224 17.296391 27.766381 -29.429049 -0.274994 1.632631 -11.228828 -1.618977 -6.186049 -72.663962 -4.090243 16.452721 -10.144072 6.562598 28.185691 4.191783 0.498131 -2.803349 -1.429416 0.683113 3.150548 0.334774 -7.661072 -4.505845 1.356673 -0.001248 -0.230682 0.619956 2.748074 -1.130285 2.588766 -1.572597 -0.326409 -0.308701 5.708846 -2.451469 -1.996119 0.001944 -0.532886 -0.418059
14.032827 90.254965 9.291755 11.275725 4.580833 -0.301236 -1.193006 -3.907546 -1.908929 -0.458133 -7.557455 -0.865078 -0.454267 -1.737207 -0.911608 -0.413079 4.534035 -0.686951 0.393980 16.654643 1.689364 0.136596 -5.091120 2.993684 4.118904 -21.249836 -14.654047 -19.936520 -68.396447 34.203795 54.630728 -17.167546 29.203136 17.296387 27.766959 -29.441055 -0.267278 1.636093 -11.215179 -1.614508 -6.200967 -72.640796 -4.087340 16.449964 -10.135015 6.566636 28.196256 4.191232 0.503158 -2.799965 -1.424279 0.685291 3.152586 0.337936 -7.662658 -4.505914 1.358029 -0.001234 -0.229689 0.615791 2.751090 -1.124336 2.594056 -1.574621 -0.328391 -0.305978 5.710363 -2.448133 -1.995162 0.001959 -0.533498 -0.420796
14.030189 90.255442 9.285959 11.275865 4.581725 -0.305867 -1.187763 -3.900714 -1.916755 -0.455494 -7.554415 -0.868517 -0.451651 -1.734165 -0.914780 -0.411364 4.536313 -0.689330 0.426383 16.651205 1.684577 0.198277 -5.098267 2.973455 4.112344 -21.245596 -14.636615 -19.947202 -68.390321 34.215855 54.583126 -17.167526 29.229271 17.299361 27.739542 -29.446308 -0.269418 1.633043 -11.202304 -1.602250 -6.220414 -72.615727 -4.081274 16.440250 -10.119651 6.569614 28.196237 4.190326 0.500953 -2.805957 -1.419808 0.688845 3.154203 0.340118 -7.662452 -4.504466 1.359747 -0.001218 -0.228078 0.611720 2.751584 -1.127726 2.597827 -1.577385 -0.332152 -0.303510 5.710761 -2.441782 -1.994101 0.001970 -0.533762 -0.422877
14.027540 90.255867 9.278448 11.278421 4.586988 -0.309555 -1.182555 -3.893900 -1.924858 -0.452859 -7.551382 -0.872082 -0.449041 -1.731129 -0.918077 -0.409662 4.538584 -0.691802 0.459455 16.643204 1.679312 0.261275 -5.113889 2.952151 4.104898 -21.244484 -14.622261 -19.963510 -68.389007 34.230537 54.529758 -17.178941 29.256155 17.303700 27.698886 -29.447754 -0.275370 1.627099 -11.189626 -1.585309 -6.242873 -72.588914 -4.072876 16.427699 -10.099950 6.572253 28.191438 4.190001 0.494733 -2.817121 -1.416037 0.692955 3.155628 0.341787 -7.661328 -4.502346 1.361638 -0.001199 -0.226104 0.607808 2.750077 -1.136394 2.600416 -1.580453 -0.336722 -0.301121 5.710657 -2.433966 -1.993021 0.001977 -0.533785 -0.424517
14.025611 90.256208 9.272254 11.281986 4.591231 -0.312225 -1.179822 -3.888174 -1.933032 -0.451324 -7.548822 -0.875702 -0.447519 -1.728568 -0.921541 -0.408792 4.540502 -0.694404 0.493171 16.634712 1.673071 0.325809 -5.130430 2.928806 4.101896 -21.242732 -14.609446 -19.974472 -68.388220 34.241392 54.492071 -17.188143 29.272644 17.307262 27.667290 -29.450088 -0.274436 1.625981 -11.179317 -1.567696 -6.262819 -72.563141 -4.060056 16.419032 -10.076329 6.574386 28.189243 4.193399 0.488902 -2.825786 -1.413374 0.695764 3.156301 0.343208 -7.659946 -4.500731 1.363325 -0.001183 -0.224265 0.604508 2.746387 -1.143539 2.602050 -1.582250 -0.340296 -0.299007 5.710608 -2.427479 -1.992227 0.001983 -0.533895 -0.425642
14.024817 90.256435 9.269239 11.285910 4.590765 -0.313877 -1.181971 -3.884167 -1.941068 -0.451963 -7.547005 -0.879308 -0.448155 -1.726752 -0.925211 -0.409557 4.541864 -0.697167 0.529350 16.627844 1.664784 0.395668 -5.144007 2.900774 4.108851 -21.238038 -14.597262 -19.971360 -68.386077 34.241954 54.479561 -17.187983 29.272281 17.308890 27.655009 -29.454214 -0.257259 1.633297 -11.172730 -1.548318 -6.278412 -72.538223 -4.041802 16.419382 -10.047163 6.575320 28.193701 4.203726 0.485489 -2.826564 -1.411890 0.695994 3.155327 0.344378 -7.658015 -4.500223 1.364602 -0.001170 -0.222744 0.602068 2.738719 -1.144468 2.602855 -1.580843 -0.341943 -0.297016 5.711319 -2.424048 -1.991942 0.001987 -0.534174 -0.426290
